<mxfile host="cfa2095a-57a9-4454-9d4b-abfe16808da3" modified="2020-07-28T11:30:27.605Z" agent="5.0 (Macintosh; Intel Mac OS X 10_15_5) AppleWebKit/537.36 (KHTML, like Gecko) Code/1.47.3 Chrome/78.0.3904.130 Electron/7.3.2 Safari/537.36" etag="CNREMJFb1ugkwweQcZRE" version="13.1.3">
    <diagram id="6hGFLwfOUW9BJ-s0fimq" name="Page-1">
        <mxGraphModel dx="1007" dy="747" grid="1" gridSize="10" guides="1" tooltips="1" connect="1" arrows="1" fold="1" page="1" pageScale="1" pageWidth="827" pageHeight="1169" math="0" shadow="0">
            <root>
                <mxCell id="0"/>
                <mxCell id="1" parent="0"/>
                <mxCell id="26" value="Proxy or Gateway Layer" style="rounded=1;whiteSpace=wrap;html=1;fillColor=none;arcSize=6;fontStyle=1" vertex="1" parent="1">
                    <mxGeometry x="40" y="440" width="650" height="40" as="geometry"/>
                </mxCell>
                <mxCell id="46" style="edgeStyle=orthogonalEdgeStyle;rounded=0;orthogonalLoop=1;jettySize=auto;html=1;exitX=0.5;exitY=1;exitDx=0;exitDy=0;" edge="1" parent="1" source="26" target="26">
                    <mxGeometry relative="1" as="geometry"/>
                </mxCell>
                <mxCell id="49" value="" style="shape=flexArrow;endArrow=classic;html=1;labelBackgroundColor=none;strokeWidth=1;fillColor=#E6E6E6;" edge="1" parent="1">
                    <mxGeometry width="50" height="50" relative="1" as="geometry">
                        <mxPoint x="145" y="500" as="sourcePoint"/>
                        <mxPoint x="145.00000000000006" y="550" as="targetPoint"/>
                    </mxGeometry>
                </mxCell>
                <mxCell id="50" value="" style="shape=flexArrow;endArrow=classic;html=1;labelBackgroundColor=none;strokeWidth=1;fillColor=#E6E6E6;" edge="1" parent="1">
                    <mxGeometry width="50" height="50" relative="1" as="geometry">
                        <mxPoint x="374.5" y="500" as="sourcePoint"/>
                        <mxPoint x="374.5" y="550" as="targetPoint"/>
                    </mxGeometry>
                </mxCell>
                <mxCell id="54" value="" style="shape=flexArrow;endArrow=classic;html=1;labelBackgroundColor=none;strokeWidth=1;fillColor=#E6E6E6;" edge="1" parent="1">
                    <mxGeometry width="50" height="50" relative="1" as="geometry">
                        <mxPoint x="604" y="500" as="sourcePoint"/>
                        <mxPoint x="604" y="550" as="targetPoint"/>
                    </mxGeometry>
                </mxCell>
                <mxCell id="56" value="" style="group" vertex="1" connectable="0" parent="1">
                    <mxGeometry x="50" y="570" width="650" height="140" as="geometry"/>
                </mxCell>
                <mxCell id="57" value="" style="group" vertex="1" connectable="0" parent="56">
                    <mxGeometry width="190" height="140" as="geometry"/>
                </mxCell>
                <mxCell id="58" value="" style="rounded=1;whiteSpace=wrap;html=1;fillColor=none;arcSize=3;" vertex="1" parent="57">
                    <mxGeometry width="190" height="140" as="geometry"/>
                </mxCell>
                <mxCell id="59" value="Component" style="rounded=1;whiteSpace=wrap;html=1;fillColor=none;arcSize=5;" vertex="1" parent="57">
                    <mxGeometry x="10" y="40" width="80" height="40" as="geometry"/>
                </mxCell>
                <mxCell id="60" value="Component" style="rounded=1;whiteSpace=wrap;html=1;fillColor=none;arcSize=5;" vertex="1" parent="57">
                    <mxGeometry x="100" y="40" width="80" height="40" as="geometry"/>
                </mxCell>
                <mxCell id="61" value="Component" style="rounded=1;whiteSpace=wrap;html=1;fillColor=none;arcSize=5;" vertex="1" parent="57">
                    <mxGeometry x="10" y="90" width="80" height="40" as="geometry"/>
                </mxCell>
                <mxCell id="62" value="Component" style="rounded=1;whiteSpace=wrap;html=1;fillColor=none;arcSize=5;" vertex="1" parent="57">
                    <mxGeometry x="100" y="90" width="80" height="40" as="geometry"/>
                </mxCell>
                <mxCell id="63" value="Authentication Service" style="text;html=1;strokeColor=none;fillColor=none;align=center;verticalAlign=middle;whiteSpace=wrap;rounded=0;fontStyle=1" vertex="1" parent="57">
                    <mxGeometry x="10" y="10" width="170" height="20" as="geometry"/>
                </mxCell>
                <mxCell id="64" value="" style="group" vertex="1" connectable="0" parent="56">
                    <mxGeometry x="230" width="190" height="140" as="geometry"/>
                </mxCell>
                <mxCell id="65" value="" style="rounded=1;whiteSpace=wrap;html=1;fillColor=none;arcSize=3;" vertex="1" parent="64">
                    <mxGeometry width="190" height="140" as="geometry"/>
                </mxCell>
                <mxCell id="66" value="Component" style="rounded=1;whiteSpace=wrap;html=1;fillColor=none;arcSize=5;" vertex="1" parent="64">
                    <mxGeometry x="10" y="40" width="80" height="40" as="geometry"/>
                </mxCell>
                <mxCell id="67" value="Component" style="rounded=1;whiteSpace=wrap;html=1;fillColor=none;arcSize=5;" vertex="1" parent="64">
                    <mxGeometry x="100" y="40" width="80" height="40" as="geometry"/>
                </mxCell>
                <mxCell id="68" value="Component" style="rounded=1;whiteSpace=wrap;html=1;fillColor=none;arcSize=5;" vertex="1" parent="64">
                    <mxGeometry x="10" y="90" width="80" height="40" as="geometry"/>
                </mxCell>
                <mxCell id="69" value="Component" style="rounded=1;whiteSpace=wrap;html=1;fillColor=none;arcSize=5;" vertex="1" parent="64">
                    <mxGeometry x="100" y="90" width="80" height="40" as="geometry"/>
                </mxCell>
                <mxCell id="70" value="Shipping Service" style="text;html=1;strokeColor=none;fillColor=none;align=center;verticalAlign=middle;whiteSpace=wrap;rounded=0;fontStyle=1" vertex="1" parent="64">
                    <mxGeometry x="40" y="10" width="120" height="20" as="geometry"/>
                </mxCell>
                <mxCell id="71" value="" style="group" vertex="1" connectable="0" parent="56">
                    <mxGeometry x="460" width="190" height="140" as="geometry"/>
                </mxCell>
                <mxCell id="72" value="" style="rounded=1;whiteSpace=wrap;html=1;fillColor=none;arcSize=3;" vertex="1" parent="71">
                    <mxGeometry width="190" height="140" as="geometry"/>
                </mxCell>
                <mxCell id="73" value="Component" style="rounded=1;whiteSpace=wrap;html=1;fillColor=none;arcSize=5;" vertex="1" parent="71">
                    <mxGeometry x="10" y="40" width="80" height="40" as="geometry"/>
                </mxCell>
                <mxCell id="74" value="Component" style="rounded=1;whiteSpace=wrap;html=1;fillColor=none;arcSize=5;" vertex="1" parent="71">
                    <mxGeometry x="100" y="40" width="80" height="40" as="geometry"/>
                </mxCell>
                <mxCell id="75" value="Component" style="rounded=1;whiteSpace=wrap;html=1;fillColor=none;arcSize=5;" vertex="1" parent="71">
                    <mxGeometry x="10" y="90" width="80" height="40" as="geometry"/>
                </mxCell>
                <mxCell id="76" value="Component" style="rounded=1;whiteSpace=wrap;html=1;fillColor=none;arcSize=5;" vertex="1" parent="71">
                    <mxGeometry x="100" y="90" width="80" height="40" as="geometry"/>
                </mxCell>
                <mxCell id="77" value="Payment Service" style="text;html=1;strokeColor=none;fillColor=none;align=center;verticalAlign=middle;whiteSpace=wrap;rounded=0;fontStyle=1" vertex="1" parent="71">
                    <mxGeometry x="40" y="10" width="120" height="20" as="geometry"/>
                </mxCell>
                <mxCell id="78" value="" style="group" vertex="1" connectable="0" parent="1">
                    <mxGeometry x="480" y="250" width="210" height="100" as="geometry"/>
                </mxCell>
                <mxCell id="10" value="" style="rounded=1;whiteSpace=wrap;html=1;fillColor=none;arcSize=3;" vertex="1" parent="78">
                    <mxGeometry width="210" height="100" as="geometry"/>
                </mxCell>
                <mxCell id="11" value="Component" style="rounded=1;whiteSpace=wrap;html=1;fillColor=none;arcSize=5;" vertex="1" parent="78">
                    <mxGeometry x="20" y="40" width="80" height="40" as="geometry"/>
                </mxCell>
                <mxCell id="12" value="Component" style="rounded=1;whiteSpace=wrap;html=1;fillColor=none;arcSize=5;" vertex="1" parent="78">
                    <mxGeometry x="110" y="40" width="80" height="40" as="geometry"/>
                </mxCell>
                <mxCell id="15" value="Membership UI" style="text;html=1;strokeColor=none;fillColor=none;align=center;verticalAlign=middle;whiteSpace=wrap;rounded=0;fontStyle=1" vertex="1" parent="78">
                    <mxGeometry x="50" y="10" width="120" height="20" as="geometry"/>
                </mxCell>
                <mxCell id="79" value="" style="group" vertex="1" connectable="0" parent="1">
                    <mxGeometry x="40" y="250" width="390" height="100" as="geometry"/>
                </mxCell>
                <mxCell id="2" value="" style="rounded=1;whiteSpace=wrap;html=1;fillColor=none;arcSize=3;" vertex="1" parent="79">
                    <mxGeometry width="390" height="100" as="geometry"/>
                </mxCell>
                <mxCell id="3" value="Component" style="rounded=1;whiteSpace=wrap;html=1;fillColor=none;arcSize=5;" vertex="1" parent="79">
                    <mxGeometry x="20" y="40" width="80" height="40" as="geometry"/>
                </mxCell>
                <mxCell id="4" value="Component" style="rounded=1;whiteSpace=wrap;html=1;fillColor=none;arcSize=5;" vertex="1" parent="79">
                    <mxGeometry x="110" y="40" width="80" height="40" as="geometry"/>
                </mxCell>
                <mxCell id="5" value="Component" style="rounded=1;whiteSpace=wrap;html=1;fillColor=none;arcSize=5;" vertex="1" parent="79">
                    <mxGeometry x="200" y="40" width="80" height="40" as="geometry"/>
                </mxCell>
                <mxCell id="6" value="Component" style="rounded=1;whiteSpace=wrap;html=1;fillColor=none;arcSize=5;" vertex="1" parent="79">
                    <mxGeometry x="290" y="40" width="80" height="40" as="geometry"/>
                </mxCell>
                <mxCell id="7" value="Check Out UI" style="text;html=1;strokeColor=none;fillColor=none;align=center;verticalAlign=middle;whiteSpace=wrap;rounded=0;fontStyle=1" vertex="1" parent="79">
                    <mxGeometry x="20" y="10" width="350" height="20" as="geometry"/>
                </mxCell>
                <mxCell id="80" value="" style="shape=flexArrow;endArrow=classic;html=1;labelBackgroundColor=none;strokeWidth=1;fillColor=#E6E6E6;" edge="1" parent="1">
                    <mxGeometry width="50" height="50" relative="1" as="geometry">
                        <mxPoint x="234.5" y="370" as="sourcePoint"/>
                        <mxPoint x="234.5" y="420" as="targetPoint"/>
                    </mxGeometry>
                </mxCell>
                <mxCell id="81" value="" style="shape=flexArrow;endArrow=classic;html=1;labelBackgroundColor=none;strokeWidth=1;fillColor=#E6E6E6;" edge="1" parent="1">
                    <mxGeometry width="50" height="50" relative="1" as="geometry">
                        <mxPoint x="595" y="370" as="sourcePoint"/>
                        <mxPoint x="595" y="420" as="targetPoint"/>
                    </mxGeometry>
                </mxCell>
                <mxCell id="82" value="Centralized&lt;br&gt;Database" style="shape=cylinder;whiteSpace=wrap;html=1;boundedLbl=1;backgroundOutline=1;fillColor=none;fontStyle=1" vertex="1" parent="1">
                    <mxGeometry x="320" y="800" width="120" height="110" as="geometry"/>
                </mxCell>
                <mxCell id="83" value="" style="shape=flexArrow;endArrow=classic;html=1;labelBackgroundColor=none;strokeWidth=1;fillColor=#E6E6E6;" edge="1" parent="1">
                    <mxGeometry width="50" height="50" relative="1" as="geometry">
                        <mxPoint x="145" y="730" as="sourcePoint"/>
                        <mxPoint x="300" y="800" as="targetPoint"/>
                    </mxGeometry>
                </mxCell>
                <mxCell id="84" value="" style="shape=flexArrow;endArrow=classic;html=1;labelBackgroundColor=none;strokeWidth=1;fillColor=#E6E6E6;" edge="1" parent="1">
                    <mxGeometry width="50" height="50" relative="1" as="geometry">
                        <mxPoint x="374.5" y="730" as="sourcePoint"/>
                        <mxPoint x="374.5" y="780" as="targetPoint"/>
                    </mxGeometry>
                </mxCell>
                <mxCell id="86" value="" style="shape=flexArrow;endArrow=classic;html=1;labelBackgroundColor=none;strokeWidth=1;fillColor=#E6E6E6;" edge="1" parent="1">
                    <mxGeometry width="50" height="50" relative="1" as="geometry">
                        <mxPoint x="605" y="730" as="sourcePoint"/>
                        <mxPoint x="460" y="800" as="targetPoint"/>
                    </mxGeometry>
                </mxCell>
            </root>
        </mxGraphModel>
    </diagram>
</mxfile>